<svg width="25" height="25" viewBox="0 0 25 25" fill="none" xmlns="http://www.w3.org/2000/svg">
<path fill-rule="evenodd" clip-rule="evenodd" d="M6.25 3.125C6.25 1.39911 7.64911 0 9.375 0H21.875C23.6009 0 25 1.39911 25 3.125V15.625C25 17.3509 23.6009 18.75 21.875 18.75H9.375C7.64911 18.75 6.25 17.3509 6.25 15.625V3.125ZM9.375 1.5625C8.51206 1.5625 7.8125 2.26205 7.8125 3.125V15.625C7.8125 16.4879 8.51206 17.1875 9.375 17.1875H21.875C22.7379 17.1875 23.4375 16.4879 23.4375 15.625V3.125C23.4375 2.26206 22.7379 1.5625 21.875 1.5625H9.375ZM3.125 7.8125C2.26205 7.8125 1.5625 8.51206 1.5625 9.375V21.875C1.5625 22.7379 2.26205 23.4375 3.125 23.4375H15.625C16.4879 23.4375 17.1875 22.7379 17.1875 21.875V20.3125H18.75V21.875C18.75 23.6009 17.3509 25 15.625 25H3.125C1.39911 25 0 23.6009 0 21.875V9.375C0 7.64911 1.39911 6.25 3.125 6.25H4.6875V7.8125H3.125Z" fill="black"/>
</svg>
