<?xml version="1.0" encoding="UTF-8"?><svg id="Layer_2" xmlns="http://www.w3.org/2000/svg" viewBox="0 0 150.82 62.32"><defs><style>.cls-1{fill:#a7ad8b;}</style></defs><g id="Layer_1-2"><path class="cls-1" d="M12.15,14.66c2.23-.49,3.81-1.47,4.72-2.95.92-1.48,1.38-3.16,1.38-5.05,0-4.44-3.33-6.66-9.98-6.66C5.88,0,3.12.11,0,.32v27.94h3.35v-13.36h5.21l7.91,13.36h3.75l-8.07-13.6ZM3.35,14.49V.69c1.72-.19,3.36-.28,4.92-.28,2.24,0,3.92.54,5.05,1.63,1.13,1.09,1.7,2.66,1.7,4.7,0,5.01-1.9,7.59-5.7,7.75H3.35Z"/><path class="cls-1" d="M39.72,27.94l-.44-.08c-.32-.03-.64-.25-.95-.67s-.47-1.01-.47-1.79v-13.53c0-.86-.34-1.68-1.04-2.46-.89-1-2.72-1.5-5.5-1.5-2.47,0-4.91.56-7.3,1.66l.16.28c.62-.35,1.59-.7,2.93-1.07,1.33-.36,2.49-.54,3.49-.54s1.8.13,2.42.38c.62.26,1.05.56,1.29.91.25.35.44.71.59,1.07.15.36.19.66.14.89-.06.23-.06.35,0,.38v6.7c-.59-.05-1.25-.08-1.98-.08s-1.52.04-2.38.12c-3.47.22-5.72.81-6.74,1.78-.51.48-.82.93-.93,1.33-.11.41-.16.78-.16,1.11s.02.67.08.99c.46,3.07,2.38,4.6,5.77,4.6,2.91,0,5.02-1.19,6.34-3.59v.85c0,.43.31.94.93,1.53.67.7,1.92,1.05,3.75,1.05h1.25v-.32h-1.25ZM35.04,23.78c-.08.92-.69,1.86-1.84,2.85-1.14.98-2.43,1.47-3.85,1.47-2.16,0-3.35-1.43-3.6-4.28-.02-.27-.04-.51-.04-.73,0-1.18.31-2.11.93-2.78.62-.67,1.95-1.13,4-1.37.73-.09,1.46-.13,2.2-.13s1.47.03,2.2.09v4.88Z"/><path class="cls-1" d="M61.16,27.94l-.44-.08c-.33-.03-.64-.25-.95-.67-.31-.42-.47-1.01-.47-1.79v-12.64c0-1.32-.33-2.4-1.01-3.23-.43-.51-1.11-.91-2.03-1.19-.93-.28-2.14-.43-3.62-.43s-2.84.51-4.07,1.52c-1.24,1.01-2.09,2.09-2.55,3.25v-4.6h-2.82v20.18h2.82v-14.33c0-1.08.69-2.29,2.06-3.65,1.37-1.36,2.92-2.04,4.64-2.04.84,0,1.54.13,2.1.4,1.11.59,1.66,1.95,1.66,4.08v12.68l.04.68c.02.49.33.97.91,1.45.57.49,1.42.73,2.52.73h2.46v-.32h-1.25Z"/><path class="cls-1" d="M74,7.91c-3.39,0-5.94.96-7.63,2.87-1.7,1.91-2.55,4.62-2.55,8.12,0,6.16,2.75,9.31,8.24,9.44,1.62,0,3.01-.36,4.2-1.09,1.18-.72,2.03-1.56,2.54-2.5v4c0,6.19-1.86,9.28-5.57,9.28-2.74,0-5.27-.97-7.59-2.91l-.28.25c2.18,1.99,4.8,2.98,7.87,2.98,5.57,0,8.37-3.2,8.4-9.6V9.25c-2.59-.89-5.13-1.34-7.63-1.34ZM78.8,23.7c-.08.94-.76,1.9-2.06,2.87-1.29.96-2.84,1.45-4.64,1.45-3.63,0-5.45-3.04-5.45-9.12,0-3.37.61-5.99,1.82-7.86s3.01-2.8,5.41-2.8c1.34,0,2.98.4,4.92,1.21v14.25Z"/><path class="cls-1" d="M94.63,7.91c-3.39,0-5.94.96-7.63,2.87-1.7,1.91-2.55,4.62-2.55,8.12,0,6.16,2.75,9.31,8.24,9.44,1.61,0,3.01-.36,4.2-1.09,1.18-.72,2.03-1.56,2.54-2.5v4c0,6.19-1.86,9.28-5.57,9.28-2.75,0-5.28-.97-7.59-2.91l-.28.25c2.18,1.99,4.8,2.98,7.87,2.98,5.57,0,8.37-3.2,8.4-9.6V9.25c-2.59-.89-5.13-1.34-7.63-1.34ZM99.43,23.7c-.08.94-.77,1.9-2.06,2.87-1.29.96-2.84,1.45-4.64,1.45-3.63,0-5.45-3.04-5.45-9.12,0-3.37.61-5.99,1.82-7.86,1.21-1.87,3.01-2.8,5.41-2.8,1.34,0,2.98.4,4.92,1.21v14.25Z"/><path class="cls-1" d="M121.96,27.94l-.45-.08c-.32-.03-.64-.25-.94-.67-.31-.42-.47-1.01-.47-1.79v-13.53c0-.86-.35-1.68-1.05-2.46-.89-1-2.72-1.5-5.49-1.5-2.48,0-4.91.56-7.31,1.66l.16.28c.62-.35,1.6-.7,2.93-1.07,1.33-.36,2.5-.54,3.49-.54s1.81.13,2.43.38c.61.26,1.05.56,1.29.91.24.35.43.71.58,1.07.15.36.2.66.14.89-.05.23-.05.35,0,.38v6.7c-.59-.05-1.25-.08-1.97-.08s-1.52.04-2.39.12c-3.47.22-5.72.81-6.74,1.78-.51.48-.82.93-.93,1.33-.1.41-.16.78-.16,1.11s.03.67.08.99c.46,3.07,2.39,4.6,5.78,4.6,2.9,0,5.02-1.19,6.33-3.59v.85c0,.43.31.94.93,1.53.68.7,1.93,1.05,3.76,1.05h1.25v-.32h-1.25ZM117.27,23.78c-.08.92-.69,1.86-1.83,2.85-1.15.98-2.43,1.47-3.86,1.47-2.15,0-3.35-1.43-3.59-4.28-.03-.27-.04-.51-.04-.73,0-1.18.31-2.11.93-2.78.62-.67,1.95-1.13,3.99-1.37.73-.09,1.46-.13,2.2-.13s1.48.03,2.2.09v4.88Z"/><path class="cls-1" d="M43.01,33.9v26.12l-16.8-26.12h-1.37v28.26h.52v-23.41l15.22,23.41h2.95v-28.26h-.52Z"/><path class="cls-1" d="M64.48,44.24c-1.77-1.62-4.08-2.43-6.92-2.43s-5.18.93-7.03,2.79c-1.84,1.86-2.76,4.47-2.76,7.83s.89,5.86,2.66,7.47c1.78,1.62,4.09,2.42,6.93,2.42s5.18-.93,7.02-2.78c1.85-1.86,2.77-4.47,2.77-7.83s-.89-5.86-2.67-7.47ZM62.38,59.28c-1.34,1.81-3.04,2.72-5.08,2.72s-3.69-.78-4.93-2.34c-1.24-1.56-1.85-3.96-1.85-7.21s.67-5.77,2.01-7.59c1.35-1.81,3.04-2.72,5.09-2.72s3.69.78,4.93,2.34c1.23,1.56,1.85,3.96,1.85,7.21s-.67,5.77-2.02,7.59Z"/><path class="cls-1" d="M85.05,43.19c-.04-.22-.15-.46-.32-.73-.18-.27-.32-.43-.42-.48l-.25.24c.43.4.65.99.65,1.77s-.16,1.46-.48,2.02l-6.26,12.68-6.18-16.71h-2.83l7.51,20.18h.41l7.75-16.15c.32-.75.48-1.49.48-2.22,0-.19-.02-.39-.06-.6Z"/><path class="cls-1" d="M104.61,50.05v-.4c0-2.59-.75-4.54-2.26-5.86-1.51-1.32-3.36-1.98-5.57-1.98-2.75,0-5.01.93-6.78,2.79-1.78,1.86-2.67,4.47-2.67,7.83s.85,5.86,2.55,7.47c1.69,1.62,3.89,2.42,6.6,2.42s5.13-.41,7.28-1.25l-.12-.28c-2.1.81-4.49,1.21-7.18,1.21-1.91,0-3.45-.78-4.63-2.34-1.17-1.56-1.75-4.01-1.75-7.35,0-.78.04-1.53.12-2.26h14.41ZM92.52,44.16c1.2-1.35,2.56-2.02,4.1-2.02s2.78.62,3.75,1.85c.97,1.24,1.47,3.15,1.5,5.74h-11.63c.32-2.37,1.08-4.23,2.28-5.57Z"/><path class="cls-1" d="M112.61,61.84l-.45-.08c-.32-.03-.64-.25-.95-.67-.31-.41-.46-1.01-.46-1.79v-27.38h-2.83v27.66c0,.21.07.46.2.72.62,1.24,2.12,1.86,4.49,1.86h1.25v-.32h-1.25Z"/><path class="cls-1" d="M122.01,61.84l-.44-.08c-.33-.03-.64-.25-.95-.67-.31-.41-.47-1.01-.47-1.79v-27.38h-2.82v27.66c0,.21.07.46.2.72.62,1.24,2.11,1.86,4.48,1.86h1.25v-.32h-1.25Z"/><path class="cls-1" d="M142.16,61.84l-.45-.08c-.32-.03-.64-.25-.95-.67-.31-.41-.46-1.01-.46-1.79v-13.53c0-.86-.35-1.68-1.05-2.46-.89-1-2.72-1.5-5.49-1.5-.71,0-1.42.05-2.13.14-.67.09-1.33.21-2,.39h-.01c-.94.49-1.98.87-3.17,1.14l.15.25v.02s.05-.02.08-.03c.62-.34,1.58-.68,2.86-1.04.42-.11.83-.21,1.21-.28.84-.18,1.6-.26,2.28-.26,1,0,1.81.13,2.43.38.61.26,1.04.56,1.29.91.24.35.43.71.58,1.07s.2.66.14.89c-.05.23-.05.35,0,.38v6.7c-.59-.05-1.25-.08-1.97-.08s-1.52.04-2.39.12c-3.47.22-5.72.81-6.74,1.78-.51.48-.82.93-.93,1.33-.1.41-.16.78-.16,1.11s.03.67.08.99c.46,3.07,2.38,4.6,5.78,4.6,2.9,0,5.01-1.19,6.33-3.59v.85c0,.43.31.94.93,1.53.67.7,1.93,1.05,3.76,1.05h1.25v-.32h-1.25ZM137.47,57.68c-.08.92-.69,1.86-1.83,2.85-1.15.98-2.43,1.47-3.86,1.47-2.15,0-3.35-1.43-3.59-4.28-.03-.27-.04-.51-.04-.73,0-1.18.31-2.11.93-2.78.62-.67,1.95-1.13,3.99-1.37.73-.08,1.46-.12,2.2-.12s1.48.02,2.2.08v4.88Z"/><path class="cls-1" d="M150.29,5.01c-.36-.32-.87-.48-1.54-.48-.42,0-.92.08-1.49.24-.57.17-1.2.43-1.88.8-.75.4-1.44.94-2.06,1.61s-1.17,1.41-1.64,2.21c-.48.8-.89,1.62-1.24,2.47-.34.85-.62,1.66-.83,2.43l-.93.43c-1.12.51-2.26,1.04-3.41,1.58-1.14.54-2.26,1.11-3.36,1.7-1.37.74-2.67,1.52-3.88,2.35-1.22.83-2.28,1.72-3.19,2.68-.91.95-1.63,1.98-2.17,3.07-.29.58-.5,1.2-.64,1.84-.02.1-.04.21-.06.32-.07.45-.11.93-.11,1.41,0,.65.11,1.23.33,1.72.22.5.52.92.9,1.28.38.35.82.64,1.32.86.5.23,1.04.39,1.6.49.09.53.26,1.02.53,1.46.27.43.62.81,1.07,1.14.44.32.98.58,1.63.75.64.18,1.39.27,2.25.27.7,0,1.36-.06,2-.19.63-.13,1.26-.28,1.88-.48-.4.71-.87,1.39-1.41,2.02-.54.64-1.14,1.22-1.8,1.73-.76.6-1.6,1.14-2.53,1.62h-.01c-.94.49-1.98.87-3.17,1.14l.02.28s.09-.02.13-.03c.03,0,.06-.01.08-.01,1.5-.31,2.85-.75,4.07-1.32.3-.14.6-.28.88-.45.33-.17.65-.36.95-.56,1.03-.68,1.94-1.45,2.73-2.32.78-.86,1.47-1.82,2.06-2.85.89-.4,1.8-.89,2.73-1.47.93-.57,1.78-1.17,2.53-1.79.78-.67,1.47-1.37,2.06-2.11.6-.74,1.05-1.5,1.36-2.26l-.4-.18c-.3.75-.73,1.49-1.3,2.21-.57.71-1.22,1.38-1.96,2-.3.26-.64.52-1.03.79-.38.28-.78.54-1.19.8-.42.26-.84.51-1.26.74-.42.24-.81.46-1.18.65.76-1.53,1.34-3.15,1.73-4.88,1.3-.79,2.52-1.65,3.65-2.59,1.13-.94,2.11-1.9,2.95-2.87.83-.98,1.49-1.94,1.97-2.88.48-.94.72-1.8.72-2.58,0-.55-.12-1.01-.36-1.39-.25-.38-.56-.69-.93-.93-.38-.25-.8-.42-1.27-.53-.46-.12-.92-.17-1.36-.17-.93,0-1.8.07-2.59.21s-1.56.33-2.32.57c.02-.39.04-.77.08-1.16.04-.38.09-.77.14-1.17,1.56-.91,2.96-1.74,4.21-2.49s2.27-1.4,3.05-1.93c1.2-.83,2.07-1.64,2.61-2.43.54-.79.81-1.5.81-2.12,0-.52-.18-.94-.53-1.25ZM136.59,34.23c-.26.76-.57,1.49-.91,2.17-.75.25-1.48.45-2.18.6-.7.14-1.42.22-2.14.22-1.32,0-2.29-.28-2.91-.83-.62-.56-.97-1.3-1.04-2.23h.11c.17.01.34.02.49.03.14.01.3.01.46.01,1.47,0,2.95-.21,4.44-.63s2.96-1,4.39-1.72c-.2.83-.44,1.62-.71,2.38ZM138.52,21.37c-.05.8-.12,1.62-.2,2.47-.05.68-.11,1.34-.15,1.98-.05.65-.1,1.27-.18,1.88-.04.43-.09.84-.14,1.23-.05.39-.12.79-.19,1.21-.77.49-1.57.95-2.4,1.4-.83.44-1.66.83-2.49,1.15-.84.33-1.67.58-2.5.78-.83.19-1.62.29-2.37.29-.08,0-.16,0-.25.01-.09,0-.17,0-.24-.01v-.03c0-.6.09-1.25.27-1.95.19-.69.46-1.42.8-2.16.35-.75.77-1.51,1.27-2.28.49-.77,1.04-1.53,1.65-2.28,1.01-1.25,2.13-2.41,3.38-3.49s2.59-1.98,4.01-2.7c-.12.87-.21,1.7-.27,2.5ZM139.07,16.81c-.05.34-.11.7-.17,1.1-1.03.4-2.03.89-2.99,1.47-.97.57-1.88,1.21-2.73,1.89-.86.69-1.66,1.42-2.39,2.19-.73.77-1.39,1.56-1.99,2.37-.91,1.26-1.62,2.52-2.13,3.77-.5,1.25-.75,2.4-.75,3.47,0,.07,0,.16.01.25.01.1.01.18.01.24-.4-.09-.77-.21-1.13-.35-.36-.14-.67-.32-.95-.53-.29-.22-.51-.47-.67-.75-.16-.29-.24-.62-.24-.99,0-1.13.36-2.25,1.08-3.38.73-1.12,1.69-2.24,2.89-3.35.83-.77,1.74-1.52,2.73-2.27s2.02-1.48,3.08-2.2c1.07-.72,2.16-1.41,3.26-2.08,1.11-.68,2.2-1.32,3.27-1.95-.08.4-.14.77-.19,1.1ZM142.36,17.52c.82-.21,1.64-.32,2.47-.32.34,0,.67.03.98.08.32.05.6.14.85.28.24.13.44.3.59.52.14.21.22.48.22.81,0,.57-.2,1.26-.59,2.04-.39.78-.93,1.61-1.62,2.47-.69.87-1.5,1.75-2.43,2.64-.93.9-1.94,1.76-3.02,2.59.1-.71.18-1.43.22-2.16.05-.74.07-1.48.07-2.23,0-.49,0-.97-.03-1.42-.03-.46-.05-.91-.08-1.36-.03-.43-.05-.84-.07-1.25-.01-.41-.02-.83-.02-1.26v-.6c.83-.34,1.65-.61,2.46-.83ZM149.15,8.55c-.4.63-1.06,1.27-1.99,1.9-.86.6-1.87,1.17-3.03,1.74-1.16.56-2.42,1.15-3.76,1.77.14-.66.37-1.38.67-2.15.31-.77.68-1.53,1.12-2.28.45-.74.95-1.43,1.52-2.07.57-.64,1.2-1.16,1.88-1.55.89-.46,1.67-.69,2.35-.69.58,0,1.03.15,1.36.45.32.31.48.69.48,1.17s-.2,1.07-.6,1.71Z"/></g></svg>