<?xml version="1.0" encoding="UTF-8"?><svg id="Layer_2" xmlns="http://www.w3.org/2000/svg" viewBox="0 0 96.61 114"><defs><style>.cls-1{fill:#434834;}</style></defs><g id="Layer_1-2"><path class="cls-1" d="M47.84,8.27h-.45v4.58h.57v.08h-1.89v-.08h.57v-4.58h-.45v-.08h1.65v.08Z"/><path class="cls-1" d="M50.59,13.66c0-.94-.46-1.41-1.38-1.41l.17-1.68h1.67v.74h-1.65l-.09.87c1.36.03,2.04.51,2.04,1.45,0,.32-.09.63-.26.92-.17.29-.39.55-.67.77-.52.41-1.09.72-1.69.93v-.09l.1-.06c.6-.33,1.06-.74,1.39-1.22.25-.37.37-.78.37-1.22Z"/><path class="cls-1" d="M39.5,19.43c0-.66.25-1.23.75-1.7s1.12-.71,1.87-.71,1.35.19,1.82.58c.47.39.71,1,.71,1.82,0,.66-.25,1.23-.75,1.7-.5.47-1.12.71-1.87.71s-1.35-.19-1.82-.58c-.47-.39-.71-1-.71-1.82ZM40.26,19.43c0,.8.17,1.38.5,1.76.33.38.76.57,1.29.57s.96-.23,1.32-.68c.35-.45.53-1,.53-1.65,0-.8-.17-1.38-.5-1.76s-.76-.57-1.29-.57-.96.23-1.32.68-.53,1-.53,1.65Z"/><path class="cls-1" d="M46.78,19.51c-.48,0-.9.18-1.26.54l-.05-.06c.42-.37.87-.56,1.33-.56s.82.09,1.06.28c.24.19.36.47.36.86s-.22.95-.67,1.71-.95,1.36-1.5,1.8h1.83c.44,0,.7-.13.79-.38l.06.03s-.02.07-.07.13c-.04.06-.09.11-.15.15-.15.1-.36.15-.62.15h-2.74c.59-.45,1.13-1.06,1.6-1.84s.71-1.37.71-1.78c0-.69-.23-1.04-.68-1.04Z"/><polygon class="cls-1" points="50.09 19.67 39.16 10.64 39.22 10.56 50.15 19.6 50.09 19.67"/><path class="cls-1" d="M42.49,93.34c-.44,0-.82.16-1.15.49l-.04-.05c.39-.34.79-.51,1.22-.51s.75.09.97.26c.22.17.33.43.33.78s-.21.87-.61,1.57-.87,1.25-1.37,1.65h1.67c.4,0,.64-.12.72-.35l.05.03s-.02.06-.06.12c-.04.05-.09.1-.14.13-.14.09-.33.14-.57.14h-2.5c.54-.41,1.03-.97,1.47-1.68s.65-1.25.65-1.63c0-.63-.21-.95-.62-.95Z"/><path class="cls-1" d="M44.8,95.43c0-.61.23-1.12.69-1.55s1.03-.65,1.71-.65,1.24.18,1.67.53c.43.36.65.91.65,1.67,0,.61-.23,1.12-.69,1.55-.46.43-1.03.64-1.71.64s-1.24-.18-1.67-.53c-.43-.36-.65-.91-.65-1.67ZM45.49,95.43c0,.73.15,1.26.46,1.61.31.35.7.52,1.18.52s.88-.21,1.2-.62c.32-.42.48-.92.48-1.51,0-.73-.15-1.26-.46-1.61s-.7-.52-1.18-.52-.88.21-1.2.62-.48.92-.48,1.51Z"/><path class="cls-1" d="M42.49,99.34c-.44,0-.82.16-1.15.49l-.04-.05c.39-.34.79-.51,1.22-.51s.75.09.97.26c.22.17.33.43.33.78s-.21.87-.61,1.57-.87,1.25-1.37,1.65h1.67c.4,0,.64-.12.72-.35l.05.03s-.02.06-.06.12c-.04.05-.09.1-.14.13-.14.09-.33.14-.57.14h-2.5c.54-.41,1.03-.97,1.47-1.68.44-.71.65-1.25.65-1.63,0-.63-.21-.95-.62-.95Z"/><path class="cls-1" d="M47.53,102.1c0-.86-.42-1.29-1.26-1.29l.16-1.54h1.52v.68h-1.51l-.09.8c1.25.03,1.87.47,1.87,1.32,0,.29-.08.58-.23.84-.16.27-.36.5-.61.71-.48.38-1,.66-1.55.85v-.08l.1-.05c.55-.3.97-.67,1.27-1.12.23-.34.34-.71.34-1.12Z"/><path class="cls-1" d="M50.9,39.99c1.28-.98,2.68-1.7,4.19-2.16.26.13.51.28.75.45-.14.03-.25.06-.34.08-1.6.46-3.05,1.21-4.33,2.27-1.28,1.06-2.43,2.32-3.46,3.79-.94,1.36-1.79,2.85-2.54,4.48v-2.45c.62-.98,1.28-1.89,1.98-2.76,1.15-1.43,2.41-2.67,3.75-3.7Z"/><path class="cls-1" d="M36.34,76.52v-9.31c-.15.43-.3.85-.44,1.26-.39,1.09-.78,2.1-1.17,3.03-.74,1.81-1.59,3.6-2.56,5.38-.96,1.78-2.08,3.43-3.33,4.95-1.25,1.52-2.68,2.85-4.27,4-1.59,1.15-3.36,2-5.33,2.56-1.24.35-2.49.56-3.74.62-1.25.06-2.48-.05-3.69-.34-1.21-.28-2.37-.75-3.47-1.39-1.11-.64-2.13-1.48-3.06-2.52h.03c-.71-.9-1.28-1.77-1.71-2.6-.43-.83-.79-1.76-1.08-2.77-.4-1.39-.62-2.8-.69-4.22-.06-1.42.02-2.83.24-4.22.22-1.4.57-2.76,1.04-4.09.48-1.33,1.05-2.59,1.71-3.79.77-1.31,1.6-2.5,2.51-3.55.91-1.05,1.95-2.06,3.11-3,.65-.5,1.28-.95,1.88-1.32.6-.38,1.2-.72,1.79-1.02-.11.99-.13,2.01-.07,3.08.06,1.06.23,2.08.51,3.05.5,1.75,1.24,3.24,2.23,4.48.99,1.24,2.14,2.19,3.47,2.88,1.32.68,2.77,1.09,4.33,1.22,1.56.13,3.18-.05,4.84-.52.99-.28,1.89-.69,2.71-1.23.82-.54,1.54-1.17,2.16-1.9.63-.73,1.15-1.52,1.57-2.4.16-.33.31-.67.44-1.01h0v-1.18h0c-1.37,3.34-3.78,5.5-7.24,6.48-1.54.44-2.99.56-4.36.37-1.37-.19-2.6-.63-3.71-1.32-1.11-.69-2.06-1.59-2.85-2.69-.79-1.11-1.39-2.36-1.78-3.75-.31-1.1-.47-2.19-.47-3.27,0-1.08.08-2.16.23-3.23.26-.12.6-.24,1.02-.38.42-.13,1.11-.33,2.08-.61,1.08-.31,2.11-.53,3.11-.66,1-.14,2-.21,3-.22,1,0,2.01.03,3.04.11,1.03.08,2.1.2,3.21.34l.05-.32c-2.14-.49-4.24-.78-6.3-.88-2.06-.1-4.18.05-6.37.44-.35.05-.7.13-1.06.23-.36.1-.84.24-1.46.41.5-2.08,1.31-3.97,2.42-5.68,1.11-1.71,2.44-3.23,4-4.59,1.55-1.35,3.27-2.51,5.16-3.48,1.89-.97,3.88-1.75,5.97-2.34.08-.02.17-.05.25-.07-.18-.04-.38-.06-.59-.06h-1.88c-1.75.57-3.44,1.27-5.07,2.1-2.04,1.04-3.89,2.28-5.54,3.73-1.65,1.45-3.06,3.09-4.24,4.93-1.18,1.84-2,3.88-2.48,6.14-1.75.68-3.42,1.61-5.02,2.79-1.36,1-2.54,2.05-3.54,3.14-1,1.09-1.92,2.37-2.75,3.84-1.52,2.69-2.5,5.52-2.94,8.49-.44,2.98-.25,5.91.57,8.8.35,1.24.79,2.36,1.31,3.34.52.98,1.21,1.96,2.09,2.95,1.09,1.13,2.31,2,3.64,2.63,1.33.63,2.71,1.05,4.16,1.28,1.44.23,2.92.28,4.43.14,1.51-.13,3-.41,4.45-.82,2.78-.79,5.18-1.81,7.18-3.06.95-.59,1.83-1.24,2.65-1.94v-2.77h2.7c1.13-1.4,2.11-2.95,2.94-4.65Z"/><path class="cls-1" d="M89.59,24.16c-2.35-.02-4.63.29-6.82.91-2.89.82-5.5,1.97-7.84,3.46-2.34,1.49-4.45,3.2-6.33,5.15-.94.97-1.83,1.99-2.67,3.06-.44.56-.87,1.14-1.29,1.73-.38.54-.74,1.08-1.1,1.64-.84,1.33-1.64,2.7-2.39,4.1-.56,1.05-1.1,2.12-1.62,3.21-.11.24-.22.47-.33.71-.82,1.77-1.57,3.57-2.26,5.4-.21.55-.41,1.11-.61,1.67-.19.54-.38,1.08-.56,1.62-.42,1.22-.82,2.43-1.21,3.63-.08,0-.16,0-.24,0,.07.03.14.06.2.09-.27.83-.53,1.66-.79,2.49l-.53,1.76c-.03.09-.05.18-.08.27-.23.78-.48,1.61-.75,2.48-.05.16-.1.32-.15.48-.37,1.16-.77,2.29-1.22,3.39-.45,1.1-.97,2.11-1.55,3.04-.58.93-1.22,1.64-1.92,2.14.47-1.16.85-2.36,1.13-3.6.29-1.24.52-2.51.7-3.81.18-1.29.31-2.61.4-3.94.03-.39.05-.79.08-1.18.06-.94.12-1.88.17-2.83h0c.06-1.04.13-2.07.2-3.09.05-.69.1-1.37.15-2.06,0-.07.01-.14.02-.21.14-1.78.37-3.54.7-5.26.32-1.72.77-3.38,1.35-4.98.58-1.6,1.36-3.12,2.34-4.56.42-.62.94-1.23,1.58-1.84.1-.09.2-.18.29-.26-.2-.2-.41-.38-.64-.55-1.25.85-2.33,1.87-3.23,3.05-.99,1.29-1.81,2.72-2.48,4.28-.66,1.56-1.19,3.21-1.58,4.96-.39,1.75-.7,3.53-.91,5.34,0,.05-.01.09-.02.14-.08.68-.15,1.36-.21,2.04-.03.37-.06.74-.09,1.11-.05.7-.09,1.4-.11,2.1,0,.06,0,.12,0,.17-.06,1.72-.1,3.37-.12,4.94-.03,1.03-.05,2.08-.07,3.13-.02,1.05-.06,2.07-.13,3.04-.07.98-.16,1.9-.29,2.78-.13.88-.29,1.65-.48,2.33,1.11-.36,2.14-.89,3.09-1.58.95-.69,1.82-1.48,2.61-2.36.79-.88,1.5-1.84,2.13-2.86.1-.17.21-.34.31-.51.4-.67.76-1.34,1.09-2.01.09-.18.18-.37.26-.55.47-1.02.86-2.02,1.17-2.98.22-.68.4-1.31.54-1.9.06-.25.12-.48.17-.71.17-.87.36-1.74.55-2.61.37-1.68.77-3.38,1.21-5.09.17-.64.34-1.29.52-1.92.36-1.25.75-2.49,1.17-3.71.23-.65.46-1.3.7-1.94.93-2.45,2.03-4.8,3.28-7.04.07-.12.13-.23.2-.35.39-.68.8-1.34,1.24-1.98.91-1.35,1.91-2.63,3-3.83,1.7-1.87,3.65-3.52,5.85-4.93,2.2-1.41,4.7-2.51,7.5-3.31,2.17-.62,4.4-.92,6.68-.92,2.28,0,4.55.44,6.8,1.3l.21-.47c-2.33-.91-4.68-1.37-7.03-1.39Z"/><path class="cls-1" d="M44.52,81.85c-.33-.32-.61-.67-.82-1.04-.09-.16-.17-.32-.24-.48-.22-.53-.33-1.11-.33-1.74v-43.63c1.86,0,3.48-.01,4.87-.04.78-.01,1.55,0,2.31.01.64.02,1.27.05,1.9.09,2.21.12,4.07.84,5.57,2.16.03.03.06.06.09.08.23.21.46.44.67.68.08.08.15.17.22.26.42.5.78,1.05,1.09,1.64.23.44.44.9.61,1.39.44-.76.89-1.51,1.36-2.24.48-.76.99-1.5,1.52-2.23-.12-.13-.24-.26-.37-.38-1.22-1.19-2.72-2.11-4.5-2.74-1.78-.63-3.77-.95-5.97-.95h-19.76v.73h.95c1.01,0,1.91.29,2.68.86.2.15.39.31.57.49.03.03.07.07.1.11.53.56.9,1.18,1.11,1.88.12.4.19.83.21,1.27v40.55c-.05,1.27-.53,2.36-1.43,3.26-.73.73-1.59,1.17-2.56,1.31-.23.03-.46.05-.7.05h-.95v.73h15.96v-.73h-.88c-1.27,0-2.37-.45-3.29-1.35Z"/><path class="cls-1" d="M65.13,53.2c1.1-2.15,1.65-4.39,1.65-6.73,0-1.53-.17-2.94-.5-4.24-.94,1.79-1.78,3.66-2.51,5.58-.9,2.37-1.68,4.84-2.33,7.35-.28,1.1-.55,2.21-.81,3.3.01,0,.03-.02.04-.03,1.88-1.34,3.37-3.09,4.46-5.23Z"/><path class="cls-1" d="M52.06,61.33c0,.11-.01.23-.02.34.42-1.33.85-2.68,1.31-4.03-.36.08-.71.15-1.06.21-.09,1.16-.16,2.33-.23,3.48Z"/><path class="cls-1" d="M71.68,80.5c-.98-.83-1.95-1.78-2.93-2.85-.73-.78-1.61-1.83-2.64-3.15-1.02-1.32-2.04-2.66-3.04-4.02-1-1.37-2.16-3-3.48-4.9-.15-.21-.32-.41-.48-.62-.06.21-.13.42-.2.64-.33,1.04-.76,2.12-1.26,3.22-.25.53-.51,1.06-.8,1.6.48.69.97,1.39,1.46,2.09.9,1.29,1.68,2.4,2.34,3.33.66.93,1.06,1.49,1.21,1.68.78.93,1.73,1.89,2.86,2.89,1.12,1,2.5,1.84,4.14,2.53s3.57,1.02,5.82,1.02h4.02v-.73c-1.42,0-2.7-.24-3.84-.73-1.15-.49-2.21-1.15-3.18-1.98Z"/><path class="cls-1" d="M8.63,84.47c-.56-2.59-.85-5.26-.85-7.94v-13.5h.39v13.5c0,2.65.28,5.29.84,7.86l-.39.08Z"/><path class="cls-1" d="M45.25,114c-14.54,0-27.89-8.52-34.01-21.72l.36-.17c6.06,13.05,19.27,21.49,33.65,21.49,16.58,0,31.26-11.14,35.71-27.08.07-.24.13-.47.19-.7.78-3.02,1.18-6.15,1.18-9.29v-39.06c0-2.9-.33-5.78-.99-8.55l.38-.09c.66,2.8,1,5.71,1,8.64v39.06c0,3.17-.4,6.33-1.19,9.39-.06.24-.12.47-.19.71-4.5,16.11-19.34,27.37-36.1,27.37Z"/><path class="cls-1" d="M8.17,52.98h-.39v-15.51C7.78,16.81,24.59,0,45.25,0c10.01,0,19.42,3.9,26.5,10.98,3.53,3.53,6.28,7.64,8.16,12.23l-.37.15c-1.87-4.54-4.58-8.61-8.08-12.1C64.47,4.25,55.15.4,45.25.4,24.81.4,8.17,17.03,8.17,37.47v15.51Z"/><path class="cls-1" d="M6.71,82.49c-.4-2.19-.61-4.49-.61-6.79v-9.69h.39v9.69c0,2.28.2,4.55.6,6.75l-.39.04Z"/><path class="cls-1" d="M46.1,114h-1.69c-14.78,0-28.39-8.65-34.68-22.04l.36-.17c6.22,13.25,19.7,21.81,34.32,21.81h1.69c20.9,0,37.91-17,37.91-37.91v-37.4c0-3.34-.44-6.65-1.3-9.85l.38-.1c.87,3.22,1.31,6.57,1.31,9.95v37.4c0,21.12-17.18,38.3-38.3,38.3Z"/><path class="cls-1" d="M6.5,54.3h-.39v-16C6.11,17.18,23.29,0,44.41,0h1.69c15.14,0,28.89,8.95,35.03,22.79l-.36.16C74.68,9.25,61.08.4,46.1.4h-1.69C23.51.4,6.5,17.4,6.5,38.3v16Z"/><path class="cls-1" d="M50.9,39.99c1.28-.98,2.68-1.7,4.19-2.16.26.13.51.28.75.45-.14.03-.25.06-.34.08-1.6.46-3.05,1.21-4.33,2.27-1.28,1.06-2.43,2.32-3.46,3.79-.94,1.36-1.79,2.85-2.54,4.48v-2.45c.62-.98,1.28-1.89,1.98-2.76,1.15-1.43,2.41-2.67,3.75-3.7ZM36.34,76.52v-9.31c-.15.43-.3.85-.44,1.26-.39,1.09-.78,2.1-1.17,3.03-.74,1.81-1.59,3.6-2.56,5.38-.96,1.78-2.08,3.43-3.33,4.95-1.25,1.52-2.68,2.85-4.27,4-1.59,1.15-3.36,2-5.33,2.56-1.24.35-2.49.56-3.74.62-1.25.06-2.48-.05-3.69-.34-1.21-.28-2.37-.75-3.47-1.39-1.11-.64-2.13-1.48-3.06-2.52h.03c-.71-.9-1.28-1.77-1.71-2.6-.43-.83-.79-1.76-1.08-2.77-.4-1.39-.62-2.8-.69-4.22-.06-1.42.02-2.83.24-4.22.22-1.4.57-2.76,1.04-4.09.48-1.33,1.05-2.59,1.71-3.79.77-1.31,1.6-2.5,2.51-3.55.91-1.05,1.95-2.06,3.11-3,.65-.5,1.28-.95,1.88-1.32.6-.38,1.2-.72,1.79-1.02-.11.99-.13,2.01-.07,3.08.06,1.06.23,2.08.51,3.05.5,1.75,1.24,3.24,2.23,4.48.99,1.24,2.14,2.19,3.47,2.88,1.32.68,2.77,1.09,4.33,1.22,1.56.13,3.18-.05,4.84-.52.99-.28,1.89-.69,2.71-1.23.82-.54,1.54-1.17,2.16-1.9.63-.73,1.15-1.52,1.57-2.4.16-.33.31-.67.44-1.01h0v-1.18h0c-1.37,3.34-3.78,5.5-7.24,6.48-1.54.44-2.99.56-4.36.37-1.37-.19-2.6-.63-3.71-1.32-1.11-.69-2.06-1.59-2.85-2.69-.79-1.11-1.39-2.36-1.78-3.75-.31-1.1-.47-2.19-.47-3.27,0-1.08.08-2.16.23-3.23.26-.12.6-.24,1.02-.38.42-.13,1.11-.33,2.08-.61,1.08-.31,2.11-.53,3.11-.66,1-.14,2-.21,3-.22,1,0,2.01.03,3.04.11,1.03.08,2.1.2,3.21.34l.05-.32c-2.14-.49-4.24-.78-6.3-.88-2.06-.1-4.18.05-6.37.44-.35.05-.7.13-1.06.23-.36.1-.84.24-1.46.41.5-2.08,1.31-3.97,2.42-5.68,1.11-1.71,2.44-3.23,4-4.59,1.55-1.35,3.27-2.51,5.16-3.48,1.89-.97,3.88-1.75,5.97-2.34.08-.02.17-.05.25-.07-.18-.04-.38-.06-.59-.06h-1.88c-1.75.57-3.44,1.27-5.07,2.1-2.04,1.04-3.89,2.28-5.54,3.73-1.65,1.45-3.06,3.09-4.24,4.93-1.18,1.84-2,3.88-2.48,6.14-1.75.68-3.42,1.61-5.02,2.79-1.36,1-2.54,2.05-3.54,3.14-1,1.09-1.92,2.37-2.75,3.84-1.52,2.69-2.5,5.52-2.94,8.49-.44,2.98-.25,5.91.57,8.8.35,1.24.79,2.36,1.31,3.34.52.98,1.21,1.96,2.09,2.95,1.09,1.13,2.31,2,3.64,2.63,1.33.63,2.71,1.05,4.16,1.28,1.44.23,2.92.28,4.43.14,1.51-.13,3-.41,4.45-.82,2.78-.79,5.18-1.81,7.18-3.06.95-.59,1.83-1.24,2.65-1.94v-2.77h2.7c1.13-1.4,2.11-2.95,2.94-4.65ZM89.59,24.16c-2.35-.02-4.63.29-6.82.91-2.89.82-5.5,1.97-7.84,3.46-2.34,1.49-4.45,3.2-6.33,5.15-.94.97-1.83,1.99-2.67,3.06-.44.56-.87,1.14-1.29,1.73-.38.54-.74,1.08-1.1,1.64-.84,1.33-1.64,2.7-2.39,4.1-.56,1.05-1.1,2.12-1.62,3.21-.11.24-.22.47-.33.71-.82,1.77-1.57,3.57-2.26,5.4-.21.55-.41,1.11-.61,1.67-.19.54-.38,1.08-.56,1.62-.42,1.22-.82,2.43-1.21,3.63-.08,0-.16,0-.24,0,.07.03.14.06.2.09-.27.83-.53,1.66-.79,2.49l-.53,1.76c-.03.09-.05.18-.08.27-.23.78-.48,1.61-.75,2.48-.05.16-.1.32-.15.48-.37,1.16-.77,2.29-1.22,3.39-.45,1.1-.97,2.11-1.55,3.04-.58.93-1.22,1.64-1.92,2.14.47-1.16.85-2.36,1.13-3.6.29-1.24.52-2.51.7-3.81.18-1.29.31-2.61.4-3.94.03-.39.05-.79.08-1.18.06-.94.12-1.88.17-2.83h0c.06-1.04.13-2.07.2-3.09.05-.69.1-1.37.15-2.06,0-.07.01-.14.02-.21.14-1.78.37-3.54.7-5.26.32-1.72.77-3.38,1.35-4.98.58-1.6,1.36-3.12,2.34-4.56.42-.62.94-1.23,1.58-1.84.1-.09.2-.18.29-.26-.2-.2-.41-.38-.64-.55-1.25.85-2.33,1.87-3.23,3.05-.99,1.29-1.81,2.72-2.48,4.28-.66,1.56-1.19,3.21-1.58,4.96-.39,1.75-.7,3.53-.91,5.34,0,.05-.01.09-.02.14-.08.68-.15,1.36-.21,2.04-.03.37-.06.74-.09,1.11-.05.7-.09,1.4-.11,2.1,0,.06,0,.12,0,.17-.06,1.72-.1,3.37-.12,4.94-.03,1.03-.05,2.08-.07,3.13-.02,1.05-.06,2.07-.13,3.04-.07.98-.16,1.9-.29,2.78-.13.88-.29,1.65-.48,2.33,1.11-.36,2.14-.89,3.09-1.58.95-.69,1.82-1.48,2.61-2.36.79-.88,1.5-1.84,2.13-2.86.1-.17.21-.34.31-.51.4-.67.76-1.34,1.09-2.01.09-.18.18-.37.26-.55.47-1.02.86-2.02,1.17-2.98.22-.68.4-1.31.54-1.9.06-.25.12-.48.17-.71.17-.87.36-1.74.55-2.61.37-1.68.77-3.38,1.21-5.09.17-.64.34-1.29.52-1.92.36-1.25.75-2.49,1.17-3.71.23-.65.46-1.3.7-1.94.93-2.45,2.03-4.8,3.28-7.04.07-.12.13-.23.2-.35.39-.68.8-1.34,1.24-1.98.91-1.35,1.91-2.63,3-3.83,1.7-1.87,3.65-3.52,5.85-4.93,2.2-1.41,4.7-2.51,7.5-3.31,2.17-.62,4.4-.92,6.68-.92,2.28,0,4.55.44,6.8,1.3l.21-.47c-2.33-.91-4.68-1.37-7.03-1.39ZM44.52,81.85c-.33-.32-.61-.67-.82-1.04-.09-.16-.17-.32-.24-.48-.22-.53-.33-1.11-.33-1.74v-43.63c1.86,0,3.48-.01,4.87-.04.78-.01,1.55,0,2.31.01.64.02,1.27.05,1.9.09,2.21.12,4.07.84,5.57,2.16.03.03.06.06.09.08.23.21.46.44.67.68.08.08.15.17.22.26.42.5.78,1.05,1.09,1.64.23.44.44.9.61,1.39.44-.76.89-1.51,1.36-2.24.48-.76.99-1.5,1.52-2.23-.12-.13-.24-.26-.37-.38-1.22-1.19-2.72-2.11-4.5-2.74-1.78-.63-3.77-.95-5.97-.95h-19.76v.73h.95c1.01,0,1.91.29,2.68.86.2.15.39.31.57.49.03.03.07.07.1.11.53.56.9,1.18,1.11,1.88.12.4.19.83.21,1.27v40.55c-.05,1.27-.53,2.36-1.43,3.26-.73.73-1.59,1.17-2.56,1.31-.23.03-.46.05-.7.05h-.95v.73h15.96v-.73h-.88c-1.27,0-2.37-.45-3.29-1.35ZM65.13,53.2c1.1-2.15,1.65-4.39,1.65-6.73,0-1.53-.17-2.94-.5-4.24-.94,1.79-1.78,3.66-2.51,5.58-.9,2.37-1.68,4.84-2.33,7.35-.28,1.1-.55,2.21-.81,3.3.01,0,.03-.02.04-.03,1.88-1.34,3.37-3.09,4.46-5.23ZM52.06,61.33c0,.11-.01.23-.02.34.42-1.33.85-2.68,1.31-4.03-.36.08-.71.15-1.06.21-.09,1.16-.16,2.33-.23,3.48ZM71.68,80.5c-.98-.83-1.95-1.78-2.93-2.85-.73-.78-1.61-1.83-2.64-3.15-1.02-1.32-2.04-2.66-3.04-4.02-1-1.37-2.16-3-3.48-4.9-.15-.21-.32-.41-.48-.62-.06.21-.13.42-.2.64-.33,1.04-.76,2.12-1.26,3.22-.25.53-.51,1.06-.8,1.6.48.69.97,1.39,1.46,2.09.9,1.29,1.68,2.4,2.34,3.33.66.93,1.06,1.49,1.21,1.68.78.93,1.73,1.89,2.86,2.89,1.12,1,2.5,1.84,4.14,2.53s3.57,1.02,5.82,1.02h4.02v-.73c-1.42,0-2.7-.24-3.84-.73-1.15-.49-2.21-1.15-3.18-1.98Z"/></g></svg>